<?xml version="1.0" encoding="utf-8"?>
<!-- Generator: Adobe Illustrator 27.0.0, SVG Export Plug-In . SVG Version: 6.00 Build 0)  -->
<svg version="1.1" id="Layer_1" xmlns="http://www.w3.org/2000/svg" xmlns:xlink="http://www.w3.org/1999/xlink" x="0px" y="0px"
	 viewBox="0 0 333.6 122.4" style="enable-background:new 0 0 333.6 122.4;" xml:space="preserve">
<style type="text/css">
	.st0{fill:#C4C2C2;}
</style>
<g>
	<path class="st0" d="M327.3,0c6.1,0,7.9,2.5,4.6,9.1c-5.6,11.4-10.6,23.2-17.1,34.2c-8.3,14-15.1,28.8-22,43.5
		c-0.7,1.5-1.2,3.1-2,4.6c-2.6,5.2-4.4,5.5-9.1,1.7c-7-5.7-12.5-12.8-17.6-20.1c-2.4-3.5-4.8-4.9-9-3.4c-4.7,1.7-9.5,2.9-14.3,4.4
		c-1.5,0.5-2.9,1.1-4.2-0.2c-1.2-1.3-0.1-2.5,0.3-3.7c2-5.8,3.8-11.6,6-17.4c1.1-2.9,0.6-4.8-1.6-7c-6.9-7.2-13.1-14.9-19-23
		c-3.1-4.2-1.6-7.2,3.4-7.9c21.3-3.2,42.5-6.5,63.8-9.7C302,3.4,314.3,1.8,327.3,0z M244.1,65.3c24.2-11.1,42.6-30,64-45.8
		c-3.7-1.3-5.9,0.6-8.1,1.7c-13.5,7.5-27.3,14.6-41.7,20.1c-6.7,2.6-11.7,5.4-11.7,13.5C246.7,58.3,243.3,61.3,244.1,65.3z
		 M251,66.1c2.8,0.9,4.7,0.5,6.2-1.2c0.2-0.2-0.3-1.5-0.7-1.5C254,62.7,253,64.8,251,66.1z"/>
	<path class="st0" d="M139.5,116.4c-1.8,0-3.9,0.1-3.5-2c0.7-3.7,4.5-2.6,6.9-3.6c1.4-0.6,2.9,0.6,2.6,2.1
		C144.8,116.3,141.4,115.5,139.5,116.4z"/>
	<path class="st0" d="M90.3,119.2c0.1,1.2-1,1.3-2,1.1c-3-0.4-5.7-1.7-8.2-3.3c-1.1-0.7-1.5-1.9-0.2-2.9
		C81.5,113,89.9,116.9,90.3,119.2z"/>
	<path class="st0" d="M104.8,122.4c-2-0.2-4.7,0.4-4.8-2.3c-0.1-2.8,2.5-2.4,4.4-2.4c2.1,0,5-0.1,5.1,2.5
		C109.7,123.6,106.5,121.8,104.8,122.4z"/>
	<path class="st0" d="M69.5,35.6c-0.5,0-1.7-0.2-1.5-1.4c0.3-2.5,2.8-3,4.6-4c1.5-0.8,3.4-0.7,4.5,0.7c1.2,1.6,0.4,2.9-1.3,3.4
		C74,34.9,72,35.2,69.5,35.6z"/>
	<path class="st0" d="M96.8,56.4c-0.1,1.8-0.1,4.3-2.2,3.6c-2.8-0.9-2.5-4.2-2.8-6.7c-0.2-1.3,0.2-3.3,1.7-3
		C96.8,51,96.5,54,96.8,56.4z"/>
	<path class="st0" d="M61.6,98.6c0.1,1.4-0.2,2.9-1.2,2.6c-3.4-1-4.2-4.2-5.4-7c-0.4-1.1-0.1-2.7,1.5-2.4
		C60.1,92.7,60.2,96.3,61.6,98.6z"/>
	<path class="st0" d="M92.4,40.5c-0.1,1.4-1,2.4-2.2,2c-3.1-0.9-4.4-3.7-5.7-6.3c-0.6-1.2,0.9-1.6,1.8-1.4
		C89.5,35.4,91,37.9,92.4,40.5z"/>
	<path class="st0" d="M18.7,105.7c-0.2,1.4-0.6,2.2-1.8,2.3c-1.1,0.1-5.9-5.6-5.8-6.9c0.1-1.3,1.1-1.7,2.1-1.5
		C16.4,100.4,17.2,103.5,18.7,105.7z"/>
	<path class="st0" d="M179.5,101.7c-1.2,2.9-4.1,3.1-6.5,3.7c-1.4,0.3-3.2-0.5-2.6-2c1.1-2.8,4.3-2.7,6.7-3.5
		C178.2,99.4,179.3,100.2,179.5,101.7z"/>
	<path class="st0" d="M33.4,116.3c-0.6,1.9-1.9,2.3-3.2,1.9c-2.3-0.8-5.6-0.6-5.9-4.1c-0.1-1.2,1.4-1.9,2.7-1.4
		C29.2,113.7,32.1,113.7,33.4,116.3z"/>
	<path class="st0" d="M196.7,95c-1.2,2.5-3.8,3-6.4,3.5c-1.2,0.2-2.8-0.2-2.3-1.7c0.9-2.9,4-3.2,6.4-4
		C195.7,92.3,196.7,93.1,196.7,95z"/>
	<path class="st0" d="M51.1,65.4c-1.7,0.1-2.3-0.7-2.1-1.8c0.6-2.7,0.7-5.7,3.4-7.4c1-0.6,2.2,0.5,2,1.5
		C54,60.6,53.1,63.4,51.1,65.4z"/>
	<path class="st0" d="M74.5,111.2c0.2,1.4-0.4,2.2-1.2,2c-3-0.7-5.4-2.4-6.3-5.4c-0.3-1,0.2-2.3,1.4-2
		C71.4,106.5,72.8,109.3,74.5,111.2z"/>
	<path class="st0" d="M156.2,111.4c-1.5-0.1-3.4,0-3-1.3c0.8-2.9,3.5-3.6,6.3-3.6c1.1,0,3.1-0.2,2.8,1.2
		C161.4,110.6,158.5,111,156.2,111.4z"/>
	<path class="st0" d="M96.7,73.1c-0.3,1.6-0.1,4.1-2.8,4.2c-1.9,0.1-2.5-2-1.8-3.3c0.8-1.7-0.5-5,2.6-5
		C96.8,68.9,96.7,71.2,96.7,73.1z"/>
	<path class="st0" d="M56.9,48.7c-0.9,0-2.1-0.4-1.6-1.2c1.4-2.6,2.6-5.4,5.7-6.5c0.9-0.3,1.5,0.5,1.6,1.4
		C62.7,44.4,59,48.6,56.9,48.7z"/>
	<path class="st0" d="M67.8,115.5c-0.9,2.5-3.2,3.5-5.4,4.4c-1.3,0.5-2.5-0.4-2.4-1.7c0.3-3.4,3.6-3.3,5.9-4.4
		C66.9,113.2,67.6,114.2,67.8,115.5z"/>
	<path class="st0" d="M121.7,120.4c-1.6-0.1-3.7,0-3.4-1.9c0.4-2.6,3.3-2.3,5.2-2.8c1.5-0.3,3.4,0.4,3,2.3
		C126,120.3,123.6,120.1,121.7,120.4z"/>
	<path class="st0" d="M53.8,80.7c-0.3,1.2,0.6,3.7-1.5,3.4c-3.1-0.5-2.2-3.9-3-6.1c-0.4-1.2,0.5-2.4,1.8-2.3
		C54.3,76.1,53.6,78.7,53.8,80.7z"/>
	<path class="st0" d="M2,85.5c2.8,1.1,3.9,3.4,4.6,6c0.2,0.8-0.3,1.9-1.3,1.5c-2.6-1-4.1-3.3-5.2-5.7C-0.4,86.1,0.9,85.8,2,85.5z"/>
	<path class="st0" d="M77.1,109.1c-1.2-0.2-1.6-1.1-1.1-1.7c1.6-2.1,2.2-5.4,5.5-5.6c1.2-0.1,1.4,1.4,1.1,2.3
		C81.7,106.7,79.6,108.2,77.1,109.1z"/>
	<path class="st0" d="M46,117.6c1.3,0.8,4.5,0,4.3,2.5c-0.2,2.2-3,1.1-4.7,1.2c-1.3,0.1-3.5,0.7-3.5-1.5
		C42,117.5,44.1,117.6,46,117.6z"/>
	<path class="st0" d="M221.9,81.2c0.7-2.2,3-2.6,4.9-3.3c1.1-0.4,2.1,0.4,1.9,1.6c-0.5,2.6-2.6,3.6-5,3.9
		C222.4,83.5,221.8,82.7,221.9,81.2z"/>
	<path class="st0" d="M212.6,87.3c-0.8,2.4-3.3,2.8-5.3,3.7c-1.3,0.5-2.5-0.4-2.3-1.7c0.5-2.9,3.5-2.4,5.5-3.4
		C211.5,85.4,212.4,85.8,212.6,87.3z"/>
	<path class="st0" d="M91.8,88.4c-0.6,2.2-1.1,4.7-3.8,5.7c-1,0.3-1.3-1-1.1-1.7c0.6-2.4,1.1-5,3.5-6.1
		C91.7,85.6,91.7,87.3,91.8,88.4z"/>
</g>
</svg>
