<?xml version="1.0" encoding="utf-8"?>
<!-- Generator: Adobe Illustrator 27.0.0, SVG Export Plug-In . SVG Version: 6.00 Build 0)  -->
<svg version="1.1" id="Layer_1" xmlns="http://www.w3.org/2000/svg" xmlns:xlink="http://www.w3.org/1999/xlink" x="0px" y="0px"
	 viewBox="0 0 212.4 208.6" style="enable-background:new 0 0 212.4 208.6;" xml:space="preserve">
<style type="text/css">
	.st0{fill:url(#SVGID_1_);}
	.st1{fill:url(#SVGID_00000147202411530690463810000015471657429096319374_);}
	.st2{fill:url(#SVGID_00000101807909731661573290000014835736491469250713_);}
	.st3{fill:url(#SVGID_00000086660036446078640660000008875791669955875511_);}
	.st4{fill:url(#SVGID_00000160158443904585905640000008254101855345947784_);}
</style>
<g>
	<linearGradient id="SVGID_1_" gradientUnits="userSpaceOnUse" x1="-37.4026" y1="206.3213" x2="274.9154" y2="91.7187">
		<stop  offset="0" style="stop-color:#22D3EE"/>
		<stop  offset="1" style="stop-color:#164E63"/>
	</linearGradient>
	<path class="st0" d="M111.9,138.6c-0.9-0.1-1.8,0.2-2.7,0.6c-45.3,21.3-68.9-0.5-78.9-0.5c-10.4-1-11.4,13.6-5.5,29.7
		c6.9,18.8,23.4,39.8,45.5,40.3c29-0.7,48.2-36.4,49.1-56.6C119.7,144.3,117.4,138.9,111.9,138.6z"/>
	
		<linearGradient id="SVGID_00000006675943669954579910000012894612908120079239_" gradientUnits="userSpaceOnUse" x1="52.1918" y1="194.9458" x2="319.598" y2="89.6352">
		<stop  offset="0" style="stop-color:#22D3EE"/>
		<stop  offset="1" style="stop-color:#164E63"/>
	</linearGradient>
	<path style="fill:url(#SVGID_00000006675943669954579910000012894612908120079239_);" d="M152.2,111.2c-7.2-2.7-13.1-2.2-15.1,3
		c-0.3,0.9-0.4,1.8-0.3,2.7c6.2,49.7-21.8,65.4-24.9,74.8c-4.2,9.6,9.4,15,26.5,14.4c20.1-0.8,45-9.9,52.4-30.8
		C199.1,147.5,171.1,118.2,152.2,111.2z"/>
	
		<linearGradient id="SVGID_00000165918352376519979230000015788968862457171884_" gradientUnits="userSpaceOnUse" x1="87.0656" y1="122.9329" x2="333.8226" y2="29.4956">
		<stop  offset="0" style="stop-color:#22D3EE"/>
		<stop  offset="1" style="stop-color:#164E63"/>
	</linearGradient>
	<path style="fill:url(#SVGID_00000165918352376519979230000015788968862457171884_);" d="M196.4,50.5C172.5,34,136,51.6,123.5,67.4
		c-4.8,6-6.1,11.8-1.8,15.3c0.7,0.6,1.6,0.9,2.5,1.1c49.2,9.4,55.5,41,63.5,46.8c7.8,6.9,17.2-4.3,21.9-20.8
		C214.9,90.5,213.9,63.9,196.4,50.5z"/>
	
		<linearGradient id="SVGID_00000077304459685639753970000004964410901736493235_" gradientUnits="userSpaceOnUse" x1="1.0862" y1="80.1241" x2="296.8849" y2="-40.1571">
		<stop  offset="0" style="stop-color:#22D3EE"/>
		<stop  offset="1" style="stop-color:#164E63"/>
	</linearGradient>
	<path style="fill:url(#SVGID_00000077304459685639753970000004964410901736493235_);" d="M139.9,12.5C123.2,1.3,97.6-6,79.4,6.6
		c-23,17.6-17.6,57.8-6.4,74.6c4.3,6.4,9.4,9.5,14,6.5c0.8-0.5,1.4-1.2,1.8-2c24.1-43.9,56.1-40.1,64.1-45.9
		C161.9,34.4,154.2,22,139.9,12.5z"/>
	
		<linearGradient id="SVGID_00000168089700756343255050000014302542119215399561_" gradientUnits="userSpaceOnUse" x1="-61.1494" y1="128.5505" x2="182.5103" y2="41.3079">
		<stop  offset="0" style="stop-color:#22D3EE"/>
		<stop  offset="1" style="stop-color:#164E63"/>
	</linearGradient>
	<path style="fill:url(#SVGID_00000168089700756343255050000014302542119215399561_);" d="M80.9,122.2c-0.2-0.9-0.7-1.7-1.4-2.4
		C45.3,83.3,58.8,54.1,55.7,44.6c-2.2-10.2-16.4-6.7-29.9,4C10,61-4.8,83.1,1.5,104.3c9.6,27.3,49.5,34.6,69,29.2
		C77.9,131.4,82.3,127.5,80.9,122.2z"/>
</g>
<g>
</g>
<g>
</g>
<g>
</g>
<g>
</g>
<g>
</g>
<g>
</g>
</svg>
